# xmcd
# Copyright (C) 1995-1998 Ti Kan
#
# Track frame offsets:
#       150
#       5604
#       13945
#       22896
#       38977
#       49036
#       61066
#       72337
#       84499
#       95066
#       102094
#       119261
#       129727
#       144637
#       155549
#       170620
#       187070
#       199076
#       211869
#       224585
#       240157
#       250184
#       263854
#       273289
#       288293
#       308846
#       309985
#       320925
#       333627
#       346897
#
# Disc length: 4706 seconds
#
# Revision: 1
# Processed by: cddbd v1.5.2PL0 Copyright (c) Steve Scherf et al.
# Submitted via: CD-Import v1.0
#
DISCID=be12601e
DTITLE=Los Tres Lulus - Boom Boom Boom Boom
DYEAR=1900
DGENRE=
TTITLE0=Ah, Singapore
TTITLE1=Ice Cream City
TTITLE2=Falling In Love
TTITLE3=Strychnine
TTITLE4=Public Bath
TTITLE5=College Radio
TTITLE6=Summertime Boogie
TTITLE7=Boyfriend
TTITLE8=Baka Guy
TTITLE9=Drifter
TTITLE10=Boom Boom Boom Boom
TTITLE11=Stp Not Lsd
TTITLE12=Bella Ciao
TTITLE13=Set Me Free
TTITLE14=Porque Tevas
TTITLE15=Blue Velvet
TTITLE16=Really Good Time (Live)
TTITLE17=Jolene
TTITLE18=Coffee Black
TTITLE19=Stand By Your Man
TTITLE20=Summertime
TTITLE21=The Shadow Of Your Smile
TTITLE22=Morphine
TTITLE23=Margeth's Eyes
TTITLE24=Cowboy Boots (Live)
TTITLE25=Good Luck
TTITLE26=Mr. Moto (Live)
TTITLE27=It's Now Or Never
TTITLE28=Somebody Put Something In My Drink
TTITLE29=Santa Lucia
EXTD=
EXTT0=
EXTT1=
EXTT2=
EXTT3=
EXTT4=
EXTT5=
EXTT6=
EXTT7=
EXTT8=
EXTT9=
EXTT10=
EXTT11=
EXTT12=
EXTT13=
EXTT14=
EXTT15=
EXTT16=
EXTT17=
EXTT18=
EXTT19=
EXTT20=
EXTT21=
EXTT22=
EXTT23=
EXTT24=
EXTT25=
EXTT26=
EXTT27=
EXTT28=
EXTT29=
PLAYORDER=
